<?xml version="1.0" encoding="UTF-8" standalone="no"?>
<!-- Generator: Adobe Illustrator 21.0.0, SVG Export Plug-In . SVG Version: 6.00 Build 0)  -->

<svg
   xmlns:dc="http://purl.org/dc/elements/1.1/"
   xmlns:cc="http://creativecommons.org/ns#"
   xmlns:rdf="http://www.w3.org/1999/02/22-rdf-syntax-ns#"
   xmlns:svg="http://www.w3.org/2000/svg"
   xmlns="http://www.w3.org/2000/svg"
   xmlns:xlink="http://www.w3.org/1999/xlink"
   xmlns:sodipodi="http://sodipodi.sourceforge.net/DTD/sodipodi-0.dtd"
   xmlns:inkscape="http://www.inkscape.org/namespaces/inkscape"
   version="1.1"
   id="Слой_1"
   x="0px"
   y="0px"
   viewBox="0 0 300.60001 88.900003"
   xml:space="preserve"
   sodipodi:docname="logo.svg"
   width="300.60001"
   height="88.900002"
   inkscape:version="0.92.2 5c3e80d, 2017-08-06"><metadata
     id="metadata4162"><rdf:RDF><cc:Work
         rdf:about=""><dc:format>image/svg+xml</dc:format><dc:type
           rdf:resource="http://purl.org/dc/dcmitype/StillImage" /><dc:title></dc:title></cc:Work></rdf:RDF></metadata><defs
     id="defs4160" /><sodipodi:namedview
     pagecolor="#ffffff"
     bordercolor="#666666"
     borderopacity="1"
     objecttolerance="10"
     gridtolerance="10"
     guidetolerance="10"
     inkscape:pageopacity="0"
     inkscape:pageshadow="2"
     inkscape:window-width="1069"
     inkscape:window-height="683"
     id="namedview4158"
     showgrid="false"
     fit-margin-top="0"
     fit-margin-left="0"
     fit-margin-right="0"
     fit-margin-bottom="0"
     inkscape:zoom="2.0859986"
     inkscape:cx="157.05"
     inkscape:cy="39.300003"
     inkscape:window-x="0"
     inkscape:window-y="0"
     inkscape:window-maximized="0"
     inkscape:current-layer="Слой_1" /><style
     type="text/css"
     id="style4117">
	.st0{fill:#28B9D1;}
	.st1{fill:#FFC00A;}
	.st2{fill:#10D2FF;}
	.st3{clip-path:url(#SVGID_2_);fill:#28B9D1;}
</style><g
     id="g4133"
     transform="translate(-60.4,-91.1)"><path
       class="st0"
       d="m 154.3,123.8 c 0.6,-2.4 2.2,-3.8 4.2,-3.8 2.5,0 3.8,1.8 3,4.9 l -7.2,26.5 c -0.6,2.2 -1.8,3.6 -4.1,3.6 h -0.1 c -2.4,0 -3.5,-1 -4.3,-2.9 l -9.2,-20 -5.1,19.1 c -0.6,2.4 -2.2,3.8 -4.2,3.8 -2.5,0 -3.8,-1.8 -3,-4.9 l 7.1,-26.3 c 0.6,-2.4 2.2,-3.8 4.5,-3.8 h 0.3 c 2.2,0 3.6,1.1 4.4,3 l 8.8,19.1 z"
       id="path4119"
       inkscape:connector-curvature="0"
       style="fill:#28b9d1" /><path
       class="st0"
       d="m 166.1,154.8 c -2.5,0 -3.9,-1.8 -3.1,-4.9 l 6.9,-25.8 c 0.6,-2.4 2.3,-3.8 4.2,-3.8 h 10.2 c 8.1,0 11.7,3.8 11.7,8.5 0,4.6 -3,7.5 -7.4,8.5 2.9,1.3 4.8,3.5 4.8,7 0,6.2 -5.3,10.5 -14.8,10.5 z m 13.7,-6.7 c 3.8,0 6.2,-1.7 6.2,-4.3 0,-2 -1.6,-3.3 -4.7,-3.3 H 173 l -2,7.6 z m 2.5,-13.9 c 3.9,0 6.2,-1.3 6.2,-4.2 0,-1.8 -1.4,-3.1 -4.8,-3.1 h -7.2 l -1.9,7.3 z"
       id="path4121"
       inkscape:connector-curvature="0"
       style="fill:#28b9d1" /><path
       class="st0"
       d="m 198.6,143.2 c 0,-7.9 6.8,-15.3 15.3,-15.3 7.8,0 12.7,5.2 12.7,12.2 0,7.9 -6.8,15.3 -15.3,15.3 -7.8,0 -12.7,-5.2 -12.7,-12.2 z m 20.6,-2.9 c 0,-3.8 -2.3,-6 -5.7,-6 -4.6,0 -7.6,4.9 -7.6,8.7 0,3.8 2.3,6 5.7,6 4.6,0 7.6,-5 7.6,-8.7 z"
       id="path4123"
       inkscape:connector-curvature="0"
       style="fill:#28b9d1" /><path
       class="st0"
       d="m 248.8,140.3 c 0.2,-0.7 0.3,-1.7 0.3,-2.4 0,-2.1 -1.2,-3.3 -3.5,-3.3 -3,0 -4.8,2.1 -5.6,5.3 l -3.1,11.3 c -0.6,2.4 -2.2,3.8 -4.2,3.8 -2.5,0 -3.8,-1.8 -3,-4.9 l 4.9,-18.3 c 0.6,-2.4 2.2,-3.8 4.3,-3.8 2.2,0 3.4,1.4 3.4,3.1 1.9,-1.7 4,-3.3 7,-3.3 3.6,0 6,1.9 7,4.8 2.3,-2.8 5.5,-4.8 9.5,-4.8 4.7,0 7.6,2.9 7.6,7.7 0,1.5 -0.4,3.4 -0.9,5 l -2.9,10.7 c -0.6,2.4 -2.2,3.8 -4.2,3.8 -2.5,0 -3.8,-1.8 -3,-4.9 l 2.7,-9.9 c 0.2,-0.7 0.3,-1.7 0.3,-2.4 0,-2.1 -1.2,-3.3 -3.5,-3.3 -3,0 -4.8,2.1 -5.6,5.3 l -3.1,11.3 c -0.6,2.4 -2.2,3.8 -4.2,3.8 -2.5,0 -3.8,-1.8 -3,-4.9 z"
       id="path4125"
       inkscape:connector-curvature="0"
       style="fill:#28b9d1" /><path
       class="st0"
       d="m 283.8,150.9 -0.1,0.3 c -0.5,2.1 -1.9,3.8 -4.1,3.8 -2.5,0 -3.8,-1.8 -3,-4.9 l 7.4,-27.9 c 0.6,-2.4 2.2,-3.8 4.2,-3.8 2.5,0 3.8,1.8 3,4.9 l -2.1,7.8 c 2.3,-2.1 4.5,-3.4 7.4,-3.4 5.8,0 10.2,4.2 10.2,11.3 0,9.4 -7.2,16.1 -14.6,16.1 -4.2,0.2 -6.6,-1.5 -8.3,-4.2 z m 15.1,-11.2 c 0,-3.5 -2.2,-5.5 -5.5,-5.5 -4.1,0 -8,4.1 -8,9.2 0,3.4 2.4,5.6 5.7,5.6 4,0 7.8,-4 7.8,-9.3 z"
       id="path4127"
       inkscape:connector-curvature="0"
       style="fill:#28b9d1" /><path
       class="st0"
       d="m 327.9,148.3 c 0.6,-0.3 1.5,-0.7 2.3,-0.7 1.6,0 2.8,1.2 2.8,2.9 0,1 -0.6,2 -1.4,2.5 -2.3,1.5 -5.3,2.4 -8.6,2.4 -7.6,0 -12.2,-4.4 -12.2,-11.7 0,-7.6 6.2,-15.8 15.7,-15.8 6.9,0 10.8,4.4 10.8,10.3 0,0.8 -0.1,1.8 -0.3,2.7 -0.5,2.2 -1.6,3.3 -3.6,3.3 h -15.5 c 0.2,3.1 2.1,5.2 6,5.2 1.5,0 3,-0.5 4,-1.1 z m 2,-8.8 c 0.1,-0.5 0.2,-1.1 0.2,-1.7 0,-2.2 -1.3,-3.9 -4.3,-3.9 -3.4,0 -6.2,2.3 -7.4,5.6 z"
       id="path4129"
       inkscape:connector-curvature="0"
       style="fill:#28b9d1" /><path
       class="st0"
       d="m 351.7,133.1 c 1.8,-3.4 3.8,-5.1 6.1,-5.1 1.9,0 3.2,1.2 3.2,3.4 0,2 -1,3.2 -3.3,3.8 -4.7,1.3 -7.6,4.3 -9.2,10.2 l -1.6,5.9 c -0.6,2.4 -2.2,3.8 -4.2,3.8 -2.5,0 -3.8,-1.8 -3,-4.9 l 4.9,-18.3 c 0.6,-2.4 2.2,-3.8 4.2,-3.8 2.5,0 3.7,1.8 3.1,4.5 z"
       id="path4131"
       inkscape:connector-curvature="0"
       style="fill:#28b9d1" /></g><g
     id="g4155"
     transform="translate(-60.4,-91.1)"><path
       class="st1"
       d="M 73.1,152.5 60.4,180 c 0,0 19.9,-22.3 20.2,-22.6 0.3,-0.2 1,-8.5 -7.5,-4.9 z"
       id="path4135"
       inkscape:connector-curvature="0"
       style="fill:#ffc00a" /><path
       class="st2"
       d="m 115,122.3 c 4.3,-4.3 6.9,-10.3 6.9,-16.8 0,-5.2 -1.7,-10.1 -4.5,-14 -1.3,-0.2 -2.7,-0.4 -4.1,-0.4 -10.2,0 -19,6.4 -22.4,15.5 l -0.2,0.4 c -1.8,4.6 -17.3,41.6 -18.7,45 l -0.1,0.2 c 4,0.8 7.3,3.1 9.5,6.3 l 0.3,-0.3 c 3.1,-3.4 31.2,-33.8 33.3,-35.9"
       id="path4137"
       inkscape:connector-curvature="0"
       style="fill:#10d2ff" /><path
       class="st0"
       d="m 92.6,156.6 c -0.1,2.2 -0.7,4.3 -1.7,6.2 -0.8,-3.5 -2.7,-6.6 -5.3,-8.8 0.8,-2.7 2.8,-4.8 5.3,-5.8 1.3,2.6 1.9,5.4 1.7,8.4 z"
       id="path4139"
       inkscape:connector-curvature="0"
       style="fill:#28b9d1" /><path
       class="st0"
       d="m 77.3,153.8 c 0,0 2.8,-6.2 4.4,-8.8 1.6,-2.6 3.5,-0.7 2.1,1.3 -1.5,2 -6.5,7.5 -6.5,7.5 z"
       id="path4141"
       inkscape:connector-curvature="0"
       style="fill:#28b9d1" /><path
       class="st2"
       d="m 68.6,142 c -2,1.1 -3.6,2.5 -5,4.1 3.5,-0.7 7.1,-0.3 10.3,1.2 2.1,-1.8 3.1,-4.5 3,-7.2 -2.8,-0.1 -5.6,0.5 -8.3,1.9 z"
       id="path4143"
       inkscape:connector-curvature="0"
       style="fill:#10d2ff" /><g
       id="g4153"><defs
         id="defs4146"><path
           id="SVGID_1_"
           d="m 115,122.3 c 4.3,-4.3 6.9,-10.3 6.9,-16.8 0,-5.2 -1.7,-10.1 -4.5,-14 -1.3,-0.2 -2.7,-0.4 -4.1,-0.4 -10.2,0 -19,6.4 -22.4,15.5 l -0.2,0.4 c -1.8,4.6 -17.3,41.6 -18.7,45 l -0.1,0.2 c 4,0.8 7.3,3.1 9.5,6.3 l 0.3,-0.3 c 3.1,-3.4 31.2,-33.8 33.3,-35.9"
           inkscape:connector-curvature="0" /></defs><clipPath
         id="SVGID_2_"><use
           xlink:href="#SVGID_1_"
           style="overflow:visible"
           id="use4148"
           x="0"
           y="0"
           width="100%"
           height="100%" /></clipPath><path
         class="st3"
         d="m 79.6,158.6 c 0,0 20.4,-22.3 34.2,-41.7 5.8,-8.1 4.5,-16 3.6,-25.4 l 13.8,20.1 -24.8,29.6 -22.6,25.4 z"
         clip-path="url(#SVGID_2_)"
         id="path4151"
         inkscape:connector-curvature="0"
         style="fill:#28b9d1" /></g></g></svg>